<svg xmlns="http://www.w3.org/2000/svg" width="37" height="31" viewBox="0 0 37 31">
    <g fill="none" fill-rule="evenodd">
        <path fill="#EC102C" d="M3.368 0a3.368 3.368 0 1 1 0 6.736 3.368 3.368 0 0 1 0-6.736"/>
        <path fill="#2B368C" d="M1 30h5V10H1zM11 30h5V0h-5zM31.527 20.098v2.636c.001.305-.036.636-.124.889a4.013 4.013 0 0 1-1.37 1.874c-.675.51-1.553.85-2.67.851-.735-.002-1.367-.217-1.805-.62-.438-.406-.74-1.012-.748-2.01.005-.753.202-1.302.533-1.754.493-.672 1.373-1.159 2.505-1.457 1.092-.291 2.393-.402 3.679-.409zm5 8.948c-.19-1.245-.268-2.834-.268-4.462v-7.12c-.003-1.987-.357-4.078-1.573-5.725a6.23 6.23 0 0 0-2.49-2c-1.06-.478-2.35-.741-3.888-.739-2.525.004-4.944.69-6.653 1.755l-.453.281 1.241 3.666.735-.497c1.196-.811 2.935-1.303 4.616-1.3H27.877c.872 0 1.502.162 1.97.396.695.355 1.071.88 1.31 1.494.193.512.268 1.077.286 1.565-3.46.057-6.222.687-8.206 1.927-1.038.649-1.857 1.474-2.41 2.462-.55.987-.827 2.122-.827 3.363 0 1.536.548 3.071 1.653 4.23 1.098 1.16 2.749 1.912 4.827 1.912h.017c2.291-.003 4.18-.874 5.451-2.055l.212 1.623h4.484l-.117-.776z"/>
    </g>
</svg>
