<?xml version="1.0" encoding="UTF-8"?>
<svg width="130px" height="169px" viewBox="0 0 130 169" version="1.1" xmlns="http://www.w3.org/2000/svg" xmlns:xlink="http://www.w3.org/1999/xlink">
    <g stroke="none" stroke-width="1" fill="none" fill-rule="evenodd">
        <g>
            <path d="M37.0746725,62.0483846 C40.7586162,62.0483846 43.7467852,65.0370113 43.7467852,68.7195818 C43.7467852,72.4012367 40.7586162,75.3944409 37.0746725,75.3944409 C33.3925599,75.3944409 30.4007289,72.4012367 30.4007289,68.7195818 C30.4007289,65.0370113 33.3925599,62.0483846 37.0746725,62.0483846" fill="#EC102C" class="dot"></path>
            <polygon fill="#FEFEFE" points="32.2715845 120.061205 41.8069014 120.061205 41.8069014 81.556029 32.2715845 81.556029" class="path"></polygon>
            <polygon fill="#FEFEFE" points="51.3394718 120.061205 60.8715845 120.061205 60.8715845 62.0482473 51.3394718 62.0482473" class="path"></polygon>
            <path d="M90.8609366,100.379388 L90.8609366,105.602275 C90.8632254,106.206501 90.7890704,106.860621 90.6160423,107.362311 C90.1619577,108.69893 89.2395986,110.062557 87.8997746,111.076466 C86.5626972,112.085339 84.8241761,112.758226 82.6109718,112.762346 C81.1544225,112.758226 79.9024859,112.331606 79.0341408,111.532839 C78.1657958,110.729494 77.5675211,109.529282 77.553331,107.552275 C77.5624859,106.058191 77.9529437,104.971501 78.6088944,104.076606 C79.5843521,102.745022 81.3292817,101.780092 83.5713239,101.188226 C85.736007,100.611466 88.3122042,100.392663 90.8609366,100.379388 L90.8609366,100.379388 Z M100.767486,118.108367 C100.392592,115.640656 100.236042,112.492733 100.236042,109.266994 L100.236042,95.1592473 C100.230092,91.2226275 99.5297394,87.0800219 97.1206197,83.8162895 C95.9199507,82.1853388 94.2844225,80.798367 92.1851972,79.8549515 C90.0850563,78.9069585 87.5312887,78.3855853 84.4822394,78.389705 C79.4795282,78.397029 74.6882958,79.7574515 71.3009718,81.8667473 L70.4042465,82.4242825 L72.8628028,89.6864304 L74.3184366,88.7027332 C76.6877324,87.0951275 80.1331901,86.1201275 83.4655845,86.128367 L83.4834366,86.128367 L83.6285423,86.128367 C85.3560775,86.128367 86.6052676,86.4483318 87.5312887,86.9106557 C88.9100211,87.6146698 89.6547746,88.6532966 90.127169,89.8718177 C90.5103028,90.8861839 90.6595282,92.0049163 90.6947746,92.9730501 C83.8386479,93.0842825 78.365831,94.3339304 74.4360775,96.790198 C72.3794225,98.0760078 70.7557958,99.711536 69.6608662,101.669318 C68.5714296,103.623895 68.0221338,105.872804 68.0221338,108.331818 C68.0221338,111.375832 69.1083662,114.417099 71.2968521,116.714529 C73.4720634,119.012416 76.7440352,120.501923 80.8605493,120.501923 L80.895338,120.501923 C85.4343521,120.495515 89.1764296,118.768895 91.6954085,116.429353 L92.1160775,119.645937 L101.000021,119.645937 L100.767486,118.108367 Z" fill="#FEFEFE" class="path"></path>
        </g>
    </g>
</svg>